<?xml version="1.0" encoding="UTF-8"?>
<svg version="1.1" xmlns="http://www.w3.org/2000/svg" width="500" height="500">
<path d="M0 0 C165 0 330 0 500 0 C500 165 500 330 500 500 C335 500 170 500 0 500 C0 335 0 170 0 0 Z " fill="#FEFEFE" transform="translate(0,0)"/>
<path d="M0 0 C24.09 0 48.18 0 73 0 C73 23.76 73 47.52 73 72 C48.91 72 24.82 72 0 72 C0 48.24 0 24.48 0 0 Z " fill="#2B91B8" transform="translate(177,193)"/>
<path d="M0 0 C10.5496875 -0.12375 10.5496875 -0.12375 21.3125 -0.25 C24.607948 -0.30462402 24.607948 -0.30462402 27.9699707 -0.36035156 C42.11620804 -0.49971322 52.27689295 0.39573452 62.83984375 10.640625 C70.36445585 18.85918867 73.62020864 27.88648299 73.28125 39.015625 C72.33575187 49.04841066 68.09230164 57.51009508 60.625 64.3125 C51.23896025 71.75944583 41.31571198 73.30808322 29.62695312 73.22705078 C27.95734024 73.22748886 27.95734024 73.22748886 26.2539978 73.22793579 C22.59633429 73.22654896 18.93887768 73.21101807 15.28125 73.1953125 C12.73677685 73.19158008 10.19230225 73.18873419 7.64782715 73.18673706 C1.64858764 73.17989623 -4.35056384 73.16415354 -10.34976816 73.14403808 C-17.18415425 73.12162345 -24.01854399 73.11067171 -30.85295773 73.10064721 C-44.90201242 73.07978555 -58.95100217 73.04464446 -73 73 C-73 72.67 -73 72.34 -73 72 C-48.91 72 -24.82 72 0 72 C0 48.24 0 24.48 0 0 Z " fill="#B9DDEC" transform="translate(250,193)"/>
<path d="M0 0 C10.01185694 5.7629979 16.40937636 14.1186003 19.91592407 24.95675659 C20.96404933 29.2156394 20.90012029 33.37834721 20.82421875 37.7421875 C20.82119751 38.57842651 20.81817627 39.41466553 20.81506348 40.27624512 C20.79953636 43.35746863 20.75765434 46.43851423 20.71875 49.51953125 C20.656875 56.42890625 20.595 63.33828125 20.53125 70.45703125 C-3.55875 70.45703125 -27.64875 70.45703125 -52.46875 70.45703125 C-52.571875 63.27953125 -52.675 56.10203125 -52.78125 48.70703125 C-52.82677002 46.46696289 -52.87229004 44.22689453 -52.91918945 41.91894531 C-53.07920775 28.44268624 -52.27381061 17.45851399 -42.4921875 7.20703125 C-30.72274706 -2.97194427 -14.50391894 -6.18164015 0 0 Z " fill="#BADEEC" transform="translate(229.46875,122.54296875)"/>
<path d="M0 0 C4.95 0 9.9 0 15 0 C15 4.62 15 9.24 15 14 C19.62 14 24.24 14 29 14 C29 18.62 29 23.24 29 28 C24.38 28 19.76 28 15 28 C15 32.95 15 37.9 15 43 C10.05 43 5.1 43 0 43 C0 38.05 0 33.1 0 28 C-4.62 28 -9.24 28 -14 28 C-14 23.38 -14 18.76 -14 14 C-9.38 14 -4.76 14 0 14 C0 9.38 0 4.76 0 0 Z " fill="#B9DDEC" transform="translate(206,208)"/>
<path d="M0 0 C2.64 0 5.28 0 8 0 C9.32002556 2.55886504 10.63113782 5.12167068 11.9375 7.6875 C12.31068359 8.40873047 12.68386719 9.12996094 13.06835938 9.87304688 C14.93965239 13.56505742 16.48269556 16.83693096 17 21 C17.66 21 18.32 21 19 21 C19.37125 19.7625 19.7425 18.525 20.125 17.25 C22.12333111 11.19708401 25.05301842 5.63645991 28 0 C30.64 0 33.28 0 36 0 C36 10.56 36 21.12 36 32 C33.69 32 31.38 32 29 32 C28.67 26.72 28.34 21.44 28 16 C25.36 21.28 22.72 26.56 20 32 C15 31 15 31 13.78979492 29.41772461 C13.52271729 28.75264893 13.25563965 28.08757324 12.98046875 27.40234375 C12.68076172 26.68369141 12.38105469 25.96503906 12.07226562 25.22460938 C11.78029297 24.46986328 11.48832031 23.71511719 11.1875 22.9375 C10.87619141 22.17888672 10.56488281 21.42027344 10.24414062 20.63867188 C9.47864549 18.766153 8.73699997 16.88391634 8 15 C7.67 20.61 7.34 26.22 7 32 C4.69 32 2.38 32 0 32 C0 21.44 0 10.88 0 0 Z " fill="#0E1338" transform="translate(151,285)"/>
<path d="M0 0 C16.03804348 0 16.03804348 0 21.8984375 4.4375 C25.23514316 7.96840546 26.43658193 10.60113013 26.625 15.5 C26.29026589 20.8048079 25.37310623 23.86794487 22 28 C15.38266557 33.58649339 8.79620799 32 0 32 C0 21.44 0 10.88 0 0 Z " fill="#0A0E34" transform="translate(218,285)"/>
<path d="M0 0 C2.701875 -0.103125 5.40375 -0.20625 8.1875 -0.3125 C9.02949951 -0.35802002 9.87149902 -0.40354004 10.73901367 -0.45043945 C14.93243854 -0.52769856 16.54447418 -0.35178041 19.984375 2.3046875 C22.53305692 5.71280868 23.0745936 7.74816458 23 12 C20.07462687 17.64179104 20.07462687 17.64179104 16 19 C14.43881572 19.06740865 12.8749748 19.08514456 11.3125 19.0625 C9.889375 19.041875 8.46625 19.02125 7 19 C7 23.29 7 27.58 7 32 C4.69 32 2.38 32 0 32 C0 21.44 0 10.88 0 0 Z " fill="#0D1236" transform="translate(250,285)"/>
<path d="M0 0 C2.31 0 4.62 0 7 0 C7.01981934 0.68626465 7.03963867 1.3725293 7.06005859 2.07958984 C7.15510945 5.17845779 7.26486847 8.27663294 7.375 11.375 C7.4059375 12.45523437 7.436875 13.53546875 7.46875 14.6484375 C7.50742187 15.6796875 7.54609375 16.7109375 7.5859375 17.7734375 C7.6173584 18.72653809 7.6487793 19.67963867 7.68115234 20.66162109 C7.78555796 23.18895176 7.78555796 23.18895176 10 25 C14.07878004 25.48234304 14.07878004 25.48234304 17.65942383 23.79956055 C19.43178397 21.4203825 19.4264589 19.84452221 19.51171875 16.89453125 C19.54716797 15.91162109 19.58261719 14.92871094 19.61914062 13.91601562 C19.64169922 12.89185547 19.66425781 11.86769531 19.6875 10.8125 C19.72166016 9.77673828 19.75582031 8.74097656 19.79101562 7.67382812 C19.87352642 5.1159934 19.94266572 2.55850277 20 0 C22.31 0 24.62 0 27 0 C27.11668214 3.87474457 27.18741231 7.74903396 27.25 11.625 C27.30027344 13.26662109 27.30027344 13.26662109 27.3515625 14.94140625 C27.4621522 24.06505622 27.4621522 24.06505622 25.296875 27.6484375 C21.47325564 31.56309542 17.92519464 32.3081868 12.5625 32.4375 C8.75444851 32.37583115 6.37290749 32.09744016 3.375 29.6875 C0.03703674 25.91033104 -0.12340119 23.32282474 -0.09765625 18.45703125 C-0.09443359 17.38388672 -0.09121094 16.31074219 -0.08789062 15.20507812 C-0.07951172 14.08552734 -0.07113281 12.96597656 -0.0625 11.8125 C-0.05798828 10.68134766 -0.05347656 9.55019531 -0.04882812 8.38476562 C-0.03703498 5.58979073 -0.0205765 2.7949218 0 0 Z " fill="#0D1136" transform="translate(297,285)"/>
<path d="M0 0 C6.6 0 13.2 0 20 0 C20 1.98 20 3.96 20 6 C15.71 6 11.42 6 7 6 C7 8.31 7 10.62 7 13 C10.63 13 14.26 13 18 13 C18 14.98 18 16.96 18 19 C14.37 19 10.74 19 7 19 C7 21.31 7 23.62 7 26 C11.29 26 15.58 26 20 26 C20 27.98 20 29.96 20 32 C13.4 32 6.8 32 0 32 C0 21.44 0 10.88 0 0 Z " fill="#0F1438" transform="translate(193,285)"/>
<path d="M0 0 C3.0625 1.5 3.0625 1.5 5 3 C4.1875 4.9375 4.1875 4.9375 3 7 C-0.47823115 8.15941038 -2.45895578 7.70820884 -6 7 C-5.8353218 8.95061865 -5.8353218 8.95061865 -5 11 C-3.02508588 12.24591384 -3.02508588 12.24591384 -0.625 13.0625 C2.56512435 14.27308465 4.92251386 15.22128036 7 18 C7.62262378 21.04580823 7.51472236 23.9393391 7 27 C5.12379387 29.50160818 3.76108697 30.61945652 1 32 C-3.28819956 32.43808718 -6.94422448 32.44926618 -10.9375 30.75 C-13.06077857 28.94843031 -14.0195412 27.58484592 -15 25 C-11.25 22 -11.25 22 -9 22 C-9 22.66 -9 23.32 -9 24 C-6.36 24.33 -3.72 24.66 -1 25 C-1 23.68 -1 22.36 -1 21 C-2.03060547 20.51080078 -2.03060547 20.51080078 -3.08203125 20.01171875 C-3.98308594 19.57472656 -4.88414062 19.13773437 -5.8125 18.6875 C-6.70582031 18.25824219 -7.59914063 17.82898438 -8.51953125 17.38671875 C-10.8429824 16.0877815 -12.38769691 15.10277717 -14 13 C-14.62540934 8.15307763 -14.72500351 6.12258608 -12.0625 2 C-7.95543662 -0.68216384 -4.78020609 -0.82983686 0 0 Z " fill="#0D1237" transform="translate(343,285)"/>
<path d="M0 0 C2.31 0 4.62 0 7 0 C7 8.58 7 17.16 7 26 C10.63 26 14.26 26 18 26 C18 27.98 18 29.96 18 32 C12.06 32 6.12 32 0 32 C0 21.44 0 10.88 0 0 Z " fill="#0A0F34" transform="translate(276,285)"/>
<path d="M0 0 C7.27742165 0 7.27742165 0 10.859375 3.30859375 C12.72878976 6.08070536 12.68648111 8.57778331 12.46875 11.84375 C11.77989736 15.01247216 10.33200445 16.80517228 8 19 C6 20 6 20 0 20 C0 13.4 0 6.8 0 0 Z " fill="#F8F8F9" transform="translate(225,291)"/>
<path d="M0 0 C3.375 -0.125 3.375 -0.125 7 0 C7.66 0.66 8.32 1.32 9 2 C8.625 4.625 8.625 4.625 8 7 C5.36 7 2.72 7 0 7 C0 4.69 0 2.38 0 0 Z " fill="#F2F2F4" transform="translate(257,291)"/>
</svg>
